<mxfile host="" modified="2020-07-01T01:36:36.142Z" agent="5.0 (Macintosh; Intel Mac OS X 10_15_4) AppleWebKit/537.36 (KHTML, like Gecko) Code/1.46.0 Chrome/78.0.3904.130 Electron/7.3.1 Safari/537.36" etag="A1OxsTvnrIfy3q7GZebB" version="13.1.3">
    <diagram id="6hGFLwfOUW9BJ-s0fimq" name="Page-1">
        <mxGraphModel dx="1872" dy="2321" grid="1" gridSize="10" guides="1" tooltips="1" connect="1" arrows="1" fold="1" page="1" pageScale="1" pageWidth="827" pageHeight="1169" math="0" shadow="0">
            <root>
                <mxCell id="0"/>
                <mxCell id="1" parent="0"/>
                <mxCell id="12" value="" style="endArrow=none;dashed=1;html=1;entryX=0;entryY=0;entryDx=0;entryDy=0;exitX=0;exitY=1;exitDx=0;exitDy=0;" edge="1" parent="1" source="13" target="3">
                    <mxGeometry width="50" height="50" relative="1" as="geometry">
                        <mxPoint x="279" y="250" as="sourcePoint"/>
                        <mxPoint x="480" y="560" as="targetPoint"/>
                    </mxGeometry>
                </mxCell>
                <mxCell id="13" value="startIndex" style="rounded=0;whiteSpace=wrap;html=1;" vertex="1" parent="1">
                    <mxGeometry x="279" y="200" width="251" height="40" as="geometry"/>
                </mxCell>
                <mxCell id="14" value="" style="endArrow=none;dashed=1;html=1;entryX=1;entryY=0;entryDx=0;entryDy=0;exitX=1;exitY=1;exitDx=0;exitDy=0;" edge="1" parent="1" source="13" target="3">
                    <mxGeometry width="50" height="50" relative="1" as="geometry">
                        <mxPoint x="289" y="260" as="sourcePoint"/>
                        <mxPoint x="289" y="315" as="targetPoint"/>
                    </mxGeometry>
                </mxCell>
                <mxCell id="17" value="" style="group" vertex="1" connectable="0" parent="1">
                    <mxGeometry x="278" y="320" width="390" height="483" as="geometry"/>
                </mxCell>
                <mxCell id="3" value="" style="rounded=0;whiteSpace=wrap;html=1;fillColor=#ffe6cc;strokeColor=#d79b00;" parent="17" vertex="1">
                    <mxGeometry width="251" height="342.9006085192698" as="geometry"/>
                </mxCell>
                <mxCell id="7" value="&lt;font color=&quot;#ff3333&quot;&gt;定位项&amp;nbsp; &amp;nbsp; &amp;nbsp;&lt;/font&gt;" style="rounded=0;whiteSpace=wrap;html=1;fillColor=#dae8fc;strokeColor=#6c8ebf;" parent="17" vertex="1">
                    <mxGeometry y="179.54450261780104" width="251" height="42.96424083769633" as="geometry"/>
                </mxCell>
                <mxCell id="15" value="" style="rounded=0;whiteSpace=wrap;html=1;" vertex="1" parent="17">
                    <mxGeometry x="251" width="20" height="342.9006085192698" as="geometry"/>
                </mxCell>
                <mxCell id="16" value="" style="rounded=0;whiteSpace=wrap;html=1;fillColor=#647687;strokeColor=#314354;fontColor=#ffffff;gradientColor=#ffffff;gradientDirection=east;" vertex="1" parent="17">
                    <mxGeometry x="251" y="171.03" width="20" height="60" as="geometry"/>
                </mxCell>
                <mxCell id="23" style="edgeStyle=orthogonalEdgeStyle;rounded=0;orthogonalLoop=1;jettySize=auto;html=1;exitX=0.5;exitY=1;exitDx=0;exitDy=0;shadow=0;strokeColor=#F0F0F0;" edge="1" parent="17" source="3" target="3">
                    <mxGeometry relative="1" as="geometry"/>
                </mxCell>
                <mxCell id="18" value="endIndex" style="rounded=0;whiteSpace=wrap;html=1;" vertex="1" parent="17">
                    <mxGeometry x="1.5" y="400.0027180527383" width="251" height="39.18864097363083" as="geometry"/>
                </mxCell>
                <mxCell id="21" value="" style="endArrow=none;dashed=1;html=1;entryX=0;entryY=1;entryDx=0;entryDy=0;exitX=1;exitY=0;exitDx=0;exitDy=0;shadow=0;strokeColor=#F0F0F0;" edge="1" parent="17" source="18" target="15">
                    <mxGeometry width="50" height="50" relative="1" as="geometry">
                        <mxPoint x="241" y="541.7829614604462" as="sourcePoint"/>
                        <mxPoint x="291" y="492.7971602434077" as="targetPoint"/>
                    </mxGeometry>
                </mxCell>
                <mxCell id="22" value="" style="endArrow=none;dashed=1;html=1;entryX=0;entryY=1;entryDx=0;entryDy=0;exitX=0;exitY=0;exitDx=0;exitDy=0;shadow=0;strokeColor=#F0F0F0;" edge="1" parent="17" source="18" target="3">
                    <mxGeometry width="50" height="50" relative="1" as="geometry">
                        <mxPoint x="261" y="561.3772819472616" as="sourcePoint"/>
                        <mxPoint x="261" y="492.7971602434064" as="targetPoint"/>
                    </mxGeometry>
                </mxCell>
                <mxCell id="51" value="" style="shape=curlyBracket;whiteSpace=wrap;html=1;rounded=1;fontSize=15;align=center;fillColor=#dae8fc;strokeColor=#6c8ebf;" vertex="1" parent="17">
                    <mxGeometry x="117" width="20" height="180" as="geometry"/>
                </mxCell>
                <mxCell id="53" value="&lt;span style=&quot;color: rgb(0 , 0 , 51) ; font-size: 12px&quot;&gt;定位项相对窗口偏移高度&lt;/span&gt;" style="text;html=1;strokeColor=none;fillColor=none;align=center;verticalAlign=middle;whiteSpace=wrap;rounded=0;fontSize=15;" vertex="1" parent="17">
                    <mxGeometry x="72" y="40" width="40" height="100" as="geometry"/>
                </mxCell>
                <mxCell id="62" value="" style="shape=curlyBracket;whiteSpace=wrap;html=1;rounded=1;labelBackgroundColor=none;gradientColor=#ffffff;fontSize=15;fontColor=#003366;align=center;strokeColor=#001933;size=0.5;" vertex="1" parent="17">
                    <mxGeometry x="222" y="171.03" width="20" height="60" as="geometry"/>
                </mxCell>
                <mxCell id="63" value="&lt;font style=&quot;font-size: 10px&quot;&gt;滚动条高度&lt;/font&gt;" style="text;html=1;strokeColor=none;fillColor=none;align=center;verticalAlign=middle;whiteSpace=wrap;rounded=0;labelBackgroundColor=none;fontSize=15;fontColor=#003366;" vertex="1" parent="17">
                    <mxGeometry x="190" y="191.03" width="32" height="20" as="geometry"/>
                </mxCell>
                <mxCell id="64" value="" style="shape=curlyBracket;whiteSpace=wrap;html=1;rounded=1;labelBackgroundColor=none;strokeColor=#001933;gradientColor=#ffffff;fontSize=15;fontColor=#003366;align=center;" vertex="1" parent="17">
                    <mxGeometry x="222" width="20" height="171.03" as="geometry"/>
                </mxCell>
                <mxCell id="65" value="&lt;font style=&quot;font-size: 10px&quot;&gt;滚动条偏移量&lt;/font&gt;" style="text;html=1;strokeColor=none;fillColor=none;align=center;verticalAlign=middle;whiteSpace=wrap;rounded=0;labelBackgroundColor=none;fontSize=15;fontColor=#003366;" vertex="1" parent="17">
                    <mxGeometry x="186" y="65.52" width="36" height="40" as="geometry"/>
                </mxCell>
                <mxCell id="67" value="" style="shape=curlyBracket;whiteSpace=wrap;html=1;rounded=1;labelBackgroundColor=none;strokeColor=#F8CECC;gradientColor=#FFFFFF;fontSize=15;fontColor=#003366;align=center;direction=west;" vertex="1" parent="17">
                    <mxGeometry x="292" y="-120" width="20" height="560" as="geometry"/>
                </mxCell>
                <mxCell id="68" value="&lt;font color=&quot;#ccffff&quot;&gt;当前渲染虚拟列表高度&lt;/font&gt;" style="text;html=1;strokeColor=none;fillColor=none;align=center;verticalAlign=middle;whiteSpace=wrap;rounded=0;labelBackgroundColor=none;fontSize=15;fontColor=#003366;" vertex="1" parent="17">
                    <mxGeometry x="312" y="409.6" width="78" height="20" as="geometry"/>
                </mxCell>
                <mxCell id="69" value="" style="shape=singleArrow;direction=east;whiteSpace=wrap;html=1;labelBackgroundColor=none;strokeColor=#F8CECC;gradientColor=#FFFFFF;fontSize=15;fontColor=#003366;align=center;" vertex="1" parent="17">
                    <mxGeometry x="134" y="191.03" width="55" height="20" as="geometry"/>
                </mxCell>
                <mxCell id="24" value="" style="shape=curlyBracket;whiteSpace=wrap;html=1;rounded=1;gradientColor=#ffffff;direction=west;" vertex="1" parent="1">
                    <mxGeometry x="610" y="320" width="20" height="340" as="geometry"/>
                </mxCell>
                <mxCell id="26" value="容器高度&lt;br&gt;clientHeight" style="text;strokeColor=none;fillColor=none;html=1;fontSize=15;fontStyle=1;verticalAlign=middle;align=center;" vertex="1" parent="1">
                    <mxGeometry x="640" y="465" width="100" height="40" as="geometry"/>
                </mxCell>
                <mxCell id="27" value="" style="shape=link;html=1;shadow=0;strokeColor=#F0F0F0;fontSize=15;" edge="1" parent="1">
                    <mxGeometry width="50" height="50" relative="1" as="geometry">
                        <mxPoint x="70" y="-2" as="sourcePoint"/>
                        <mxPoint x="640" y="-2" as="targetPoint"/>
                    </mxGeometry>
                </mxCell>
                <mxCell id="28" value="列表渲染顶部偏移" style="edgeLabel;html=1;align=center;verticalAlign=middle;resizable=0;points=[];fontSize=15;" vertex="1" connectable="0" parent="27">
                    <mxGeometry x="-0.353" y="-3" relative="1" as="geometry">
                        <mxPoint y="-13" as="offset"/>
                    </mxGeometry>
                </mxCell>
                <mxCell id="34" value="&lt;pre style=&quot;line-height: 130%&quot;&gt;&lt;div&gt;&lt;br&gt;&lt;/div&gt;&lt;/pre&gt;" style="shape=curlyBracket;whiteSpace=wrap;html=1;rounded=1;gradientColor=#ffffff;fontSize=15;align=right;" vertex="1" parent="1">
                    <mxGeometry x="255" width="20" height="200" as="geometry"/>
                </mxCell>
                <mxCell id="38" value="起始项偏移高度" style="text;html=1;strokeColor=none;fillColor=none;align=center;verticalAlign=middle;whiteSpace=wrap;rounded=0;fontSize=15;" vertex="1" parent="1">
                    <mxGeometry x="230" y="40" width="27" height="120" as="geometry"/>
                </mxCell>
                <mxCell id="40" value="" style="shape=curlyBracket;whiteSpace=wrap;html=1;rounded=1;gradientColor=#ffffff;fontSize=15;" vertex="1" parent="1">
                    <mxGeometry x="190" width="20" height="320" as="geometry"/>
                </mxCell>
                <mxCell id="42" value="滚动偏移量" style="text;html=1;strokeColor=none;fillColor=none;align=center;verticalAlign=middle;whiteSpace=wrap;rounded=0;fontSize=15;" vertex="1" parent="1">
                    <mxGeometry x="160" y="100" width="30" height="120" as="geometry"/>
                </mxCell>
                <mxCell id="43" value="" style="shape=curlyBracket;whiteSpace=wrap;html=1;rounded=1;gradientColor=#ffffff;fontSize=15;" vertex="1" parent="1">
                    <mxGeometry x="104" width="20" height="500" as="geometry"/>
                </mxCell>
                <mxCell id="47" value="定位项偏移高度" style="text;html=1;strokeColor=none;fillColor=none;align=center;verticalAlign=middle;whiteSpace=wrap;rounded=0;fontSize=15;" vertex="1" parent="1">
                    <mxGeometry x="77" y="170" width="27" height="120" as="geometry"/>
                </mxCell>
                <mxCell id="49" value="" style="shape=curlyBracket;whiteSpace=wrap;html=1;rounded=1;gradientColor=#ffffff;fontSize=15;align=center;" vertex="1" parent="1">
                    <mxGeometry x="234" y="200" width="20" height="300" as="geometry"/>
                </mxCell>
                <mxCell id="55" value="&lt;span style=&quot;font-family: &amp;#34;menlo&amp;#34; , &amp;#34;monaco&amp;#34; , &amp;#34;consolas&amp;#34; , &amp;#34;courier new&amp;#34; , monospace ; font-size: 12px ; font-style: normal ; font-weight: 400 ; letter-spacing: normal ; text-indent: 0px ; text-transform: none ; word-spacing: 0px ; float: none ; display: inline&quot;&gt;起始项至定位项的高度&lt;br&gt;&lt;br&gt;&lt;/span&gt;" style="text;html=1;strokeColor=none;fillColor=none;align=center;verticalAlign=middle;whiteSpace=wrap;rounded=0;fontSize=15;labelBackgroundColor=none;fontColor=#FFFFFF;" vertex="1" parent="1">
                    <mxGeometry x="160" y="350" width="60" height="20" as="geometry"/>
                </mxCell>
            </root>
        </mxGraphModel>
    </diagram>
</mxfile>